# xmcd
#
# Track frame offsets:
#	170
#	55950
#	92600
#	129835
#	159577
#	188355
#	229689
#
# Disc length: 3549 seconds
#
# Revision: 13
# Processed by: cddbd v1.5.2PL0 Copyright (c) Steve Scherf et al.
# Submitted via: audiograbber 1.83.01
#
DISCID=490ddb07
DTITLE=Keith Jarrett Trio - Whisper Not CD2
DYEAR=2000
DGENRE=Jazz
TTITLE0=What Is This Thing Called Love
TTITLE1=Conception
TTITLE2=Prelude To A Kiss
TTITLE3=Hallucinations
TTITLE4=All My Tomorrows
TTITLE5=Poinciana
TTITLE6=When I Fall In Love
EXTD=Live in Paris, July 1999
EXTT0=
EXTT1=
EXTT2=
EXTT3=
EXTT4=
EXTT5=
EXTT6=
PLAYORDER=
